<svg xmlns="http://www.w3.org/2000/svg" width="260pt" height="260pt" viewBox="0 0 260 260">
	<path transform="translate(0, 260) scale(0.1, -0.1)" fill="#000000" stroke="none" d="M483 2160 c-66 -40 -63 2 -63 -862 0 -759 1 -784 20 -815 40 -66 -2 -63 860 -63 862 0 820 -3 860 63 19 31 20 56 20 815 0 864 3 822 -63 862 -31 19 -56 20 -817 20 -761 0 -786 -1 -817 -20z m484 -261 c-105 -69 -190 -205 -243 -384 -38 -130 -45 -333 -15 -457 39 -164 138 -320 236 -371 28 -15 22 -16 -122 -17 l-153 0 0 630 0 630 172 0 171 0 -46 -31z m718 14 c-4 -10 -26 -72 -50 -138 -73 -204 -56 -198 -129 -49 -63 129 -85 158 -141 187 -28 15 -20 16 149 17 166 0 178 -1 171 -17z m245 -613 l0 -630 -29 0 c-36 0 -57 26 -111 142 -42 90 -130 369 -130 412 0 14 30 99 66 189 36 89 95 242 132 339 37 98 68 178 70 178 1 0 2 -283 2 -630z m-693 420 c44 -27 92 -124 139 -285 52 -182 51 -212 -15 -350 -56 -118 -93 -165 -155 -197 -45 -23 -101 -20 -141 6 -34 22 -89 135 -109 223 -32 144 -9 332 59 481 57 123 143 171 222 122z m293 -882 c13 -35 34 -84 47 -110 12 -26 23 -50 23 -53 0 -3 -75 -5 -167 -5 l-168 1 50 26 c65 33 131 96 161 156 13 26 26 47 28 47 2 0 14 -28 26 -62z"/>
</svg>
